<mxfile host="app.diagrams.net" modified="2023-02-15T09:36:16.345Z" agent="5.0 (Windows NT 10.0; Win64; x64) AppleWebKit/537.36 (KHTML, like Gecko) Chrome/108.0.0.0 Safari/537.36" etag="Ixq_OsCCtioCWGPyJuO6" version="20.8.20" type="github">
  <diagram name="Page-1" id="EXli86hY3YLz44E0gWD3">
    <mxGraphModel dx="1290" dy="521" grid="1" gridSize="10" guides="1" tooltips="1" connect="1" arrows="1" fold="1" page="1" pageScale="1" pageWidth="1169" pageHeight="827" math="0" shadow="0">
      <root>
        <mxCell id="0" />
        <mxCell id="1" parent="0" />
        <mxCell id="YC0K7fcnTKtkai2o8YkR-7" value="" style="edgeStyle=orthogonalEdgeStyle;rounded=0;orthogonalLoop=1;jettySize=auto;html=1;" edge="1" parent="1" source="YC0K7fcnTKtkai2o8YkR-1" target="YC0K7fcnTKtkai2o8YkR-2">
          <mxGeometry relative="1" as="geometry" />
        </mxCell>
        <mxCell id="YC0K7fcnTKtkai2o8YkR-1" value="Order Request" style="ellipse;whiteSpace=wrap;html=1;" vertex="1" parent="1">
          <mxGeometry x="90" y="30" width="120" height="80" as="geometry" />
        </mxCell>
        <mxCell id="YC0K7fcnTKtkai2o8YkR-8" style="edgeStyle=orthogonalEdgeStyle;rounded=0;orthogonalLoop=1;jettySize=auto;html=1;entryX=0;entryY=0.5;entryDx=0;entryDy=0;strokeColor=#BFBFBF;" edge="1" parent="1" source="YC0K7fcnTKtkai2o8YkR-2" target="YC0K7fcnTKtkai2o8YkR-4">
          <mxGeometry relative="1" as="geometry" />
        </mxCell>
        <mxCell id="YC0K7fcnTKtkai2o8YkR-2" value="Detect Location" style="rounded=1;whiteSpace=wrap;html=1;" vertex="1" parent="1">
          <mxGeometry x="90" y="150" width="120" height="60" as="geometry" />
        </mxCell>
        <mxCell id="YC0K7fcnTKtkai2o8YkR-3" value="Selection of Flavor" style="rounded=1;whiteSpace=wrap;html=1;" vertex="1" parent="1">
          <mxGeometry x="480" y="40" width="120" height="60" as="geometry" />
        </mxCell>
        <mxCell id="YC0K7fcnTKtkai2o8YkR-6" value="" style="edgeStyle=orthogonalEdgeStyle;rounded=0;orthogonalLoop=1;jettySize=auto;html=1;" edge="1" parent="1" source="YC0K7fcnTKtkai2o8YkR-4" target="YC0K7fcnTKtkai2o8YkR-3">
          <mxGeometry relative="1" as="geometry" />
        </mxCell>
        <mxCell id="YC0K7fcnTKtkai2o8YkR-4" value="Selection of Base" style="rounded=1;whiteSpace=wrap;html=1;" vertex="1" parent="1">
          <mxGeometry x="280" y="40" width="120" height="60" as="geometry" />
        </mxCell>
      </root>
    </mxGraphModel>
  </diagram>
</mxfile>
